<mxfile host="app.diagrams.net" modified="2023-10-09T04:44:23.959Z" agent="Mozilla/5.0 (Windows NT 10.0; Win64; x64) AppleWebKit/537.36 (KHTML, like Gecko) Chrome/117.0.0.0 Safari/537.36" etag="WwsXmrXT4MssYlCr900S" version="22.0.4" type="google">
  <diagram id="R2lEEEUBdFMjLlhIrx00" name="Page-1">
    <mxGraphModel grid="1" page="1" gridSize="10" guides="1" tooltips="1" connect="1" arrows="1" fold="1" pageScale="1" pageWidth="850" pageHeight="1100" math="0" shadow="0" extFonts="Permanent Marker^https://fonts.googleapis.com/css?family=Permanent+Marker">
      <root>
        <mxCell id="0" />
        <mxCell id="1" parent="0" />
        <mxCell id="FbyVODf-QIXQxNMYrRku-32" value="" style="rounded=0;whiteSpace=wrap;html=1;direction=south;" vertex="1" parent="1">
          <mxGeometry x="1300" y="30" width="760" height="740" as="geometry" />
        </mxCell>
        <mxCell id="FbyVODf-QIXQxNMYrRku-107" value="" style="rounded=0;whiteSpace=wrap;html=1;direction=south;" vertex="1" parent="1">
          <mxGeometry x="1550" y="60" width="320" height="620" as="geometry" />
        </mxCell>
        <mxCell id="FbyVODf-QIXQxNMYrRku-154" style="edgeStyle=orthogonalEdgeStyle;rounded=0;orthogonalLoop=1;jettySize=auto;html=1;entryX=0;entryY=0.5;entryDx=0;entryDy=0;endArrow=none;endFill=0;" edge="1" parent="1" source="FbyVODf-QIXQxNMYrRku-155" target="FbyVODf-QIXQxNMYrRku-163">
          <mxGeometry relative="1" as="geometry" />
        </mxCell>
        <mxCell id="FbyVODf-QIXQxNMYrRku-155" value="System User" style="shape=umlActor;verticalLabelPosition=bottom;verticalAlign=top;html=1;outlineConnect=0;" vertex="1" parent="1">
          <mxGeometry x="1400" y="380" width="50" height="80" as="geometry" />
        </mxCell>
        <mxCell id="FbyVODf-QIXQxNMYrRku-156" value="Mission Status" style="text;strokeColor=none;fillColor=none;spacingLeft=4;spacingRight=4;overflow=hidden;rotatable=0;points=[[0,0.5],[1,0.5]];portConstraint=eastwest;fontSize=12;whiteSpace=wrap;html=1;" vertex="1" parent="1">
          <mxGeometry x="1668.43" y="80" width="90" height="50" as="geometry" />
        </mxCell>
        <mxCell id="FbyVODf-QIXQxNMYrRku-157" value="View Weather&lt;br&gt;Condition" style="ellipse;whiteSpace=wrap;html=1;" vertex="1" parent="1">
          <mxGeometry x="1655.3100000000002" y="510" width="116.25" height="50" as="geometry" />
        </mxCell>
        <mxCell id="FbyVODf-QIXQxNMYrRku-158" value="View Hardware&lt;br&gt;Status" style="ellipse;whiteSpace=wrap;html=1;" vertex="1" parent="1">
          <mxGeometry x="1653.75" y="245" width="119.38" height="70" as="geometry" />
        </mxCell>
        <mxCell id="FbyVODf-QIXQxNMYrRku-159" style="edgeStyle=orthogonalEdgeStyle;rounded=0;orthogonalLoop=1;jettySize=auto;html=1;exitX=0.5;exitY=1;exitDx=0;exitDy=0;entryX=0.5;entryY=0;entryDx=0;entryDy=0;dashed=1;" edge="1" parent="1" source="FbyVODf-QIXQxNMYrRku-163" target="FbyVODf-QIXQxNMYrRku-157">
          <mxGeometry relative="1" as="geometry" />
        </mxCell>
        <mxCell id="FbyVODf-QIXQxNMYrRku-160" value="&amp;lt;&amp;lt;Include&amp;gt;&amp;gt;" style="edgeLabel;html=1;align=center;verticalAlign=middle;resizable=0;points=[];" connectable="0" vertex="1" parent="FbyVODf-QIXQxNMYrRku-159">
          <mxGeometry x="-0.1389" relative="1" as="geometry">
            <mxPoint as="offset" />
          </mxGeometry>
        </mxCell>
        <mxCell id="FbyVODf-QIXQxNMYrRku-161" style="edgeStyle=orthogonalEdgeStyle;rounded=0;orthogonalLoop=1;jettySize=auto;html=1;entryX=0.5;entryY=1;entryDx=0;entryDy=0;dashed=1;" edge="1" parent="1" source="FbyVODf-QIXQxNMYrRku-163" target="FbyVODf-QIXQxNMYrRku-158">
          <mxGeometry relative="1" as="geometry" />
        </mxCell>
        <mxCell id="FbyVODf-QIXQxNMYrRku-162" value="&amp;lt;&amp;lt;Include&amp;gt;&amp;gt;" style="edgeLabel;html=1;align=center;verticalAlign=middle;resizable=0;points=[];" connectable="0" vertex="1" parent="FbyVODf-QIXQxNMYrRku-161">
          <mxGeometry x="-0.142" y="1" relative="1" as="geometry">
            <mxPoint as="offset" />
          </mxGeometry>
        </mxCell>
        <mxCell id="FbyVODf-QIXQxNMYrRku-163" value="Mission Progress" style="ellipse;whiteSpace=wrap;html=1;" vertex="1" parent="1">
          <mxGeometry x="1655.31" y="395" width="116.25" height="50" as="geometry" />
        </mxCell>
        <mxCell id="FbyVODf-QIXQxNMYrRku-164" value="Send&amp;nbsp;&lt;br&gt;Repairement" style="ellipse;whiteSpace=wrap;html=1;" vertex="1" parent="1">
          <mxGeometry x="1653.75" y="135" width="119.38" height="50" as="geometry" />
        </mxCell>
        <mxCell id="FbyVODf-QIXQxNMYrRku-165" value="Visibility and&lt;br&gt;Mobility" style="ellipse;whiteSpace=wrap;html=1;" vertex="1" parent="1">
          <mxGeometry x="1650" y="600" width="116.25" height="50" as="geometry" />
        </mxCell>
        <mxCell id="FbyVODf-QIXQxNMYrRku-166" style="edgeStyle=orthogonalEdgeStyle;rounded=0;orthogonalLoop=1;jettySize=auto;html=1;exitX=0.5;exitY=0.5;exitDx=0;exitDy=0;exitPerimeter=0;entryX=1;entryY=0.5;entryDx=0;entryDy=0;endArrow=none;endFill=0;" edge="1" parent="1" source="FbyVODf-QIXQxNMYrRku-167" target="FbyVODf-QIXQxNMYrRku-164">
          <mxGeometry relative="1" as="geometry">
            <Array as="points">
              <mxPoint x="1935" y="165" />
              <mxPoint x="1773" y="165" />
            </Array>
          </mxGeometry>
        </mxCell>
        <mxCell id="FbyVODf-QIXQxNMYrRku-167" value="Maintainance&amp;nbsp;&lt;br&gt;Provider" style="shape=umlActor;verticalLabelPosition=bottom;verticalAlign=top;html=1;outlineConnect=0;" vertex="1" parent="1">
          <mxGeometry x="1925" y="135" width="20" height="50" as="geometry" />
        </mxCell>
        <mxCell id="FbyVODf-QIXQxNMYrRku-168" style="edgeStyle=orthogonalEdgeStyle;rounded=0;orthogonalLoop=1;jettySize=auto;html=1;entryX=0.5;entryY=1;entryDx=0;entryDy=0;dashed=1;" edge="1" parent="1" source="FbyVODf-QIXQxNMYrRku-158" target="FbyVODf-QIXQxNMYrRku-164">
          <mxGeometry relative="1" as="geometry" />
        </mxCell>
        <mxCell id="FbyVODf-QIXQxNMYrRku-206" value="&amp;lt;&amp;lt;Extends&amp;gt;&amp;gt;" style="edgeLabel;html=1;align=center;verticalAlign=middle;resizable=0;points=[];" connectable="0" vertex="1" parent="FbyVODf-QIXQxNMYrRku-168">
          <mxGeometry x="-0.1454" y="-1" relative="1" as="geometry">
            <mxPoint as="offset" />
          </mxGeometry>
        </mxCell>
        <mxCell id="FbyVODf-QIXQxNMYrRku-170" style="edgeStyle=orthogonalEdgeStyle;rounded=0;orthogonalLoop=1;jettySize=auto;html=1;entryX=1;entryY=0.5;entryDx=0;entryDy=0;endArrow=none;endFill=0;" edge="1" parent="1" source="FbyVODf-QIXQxNMYrRku-173" target="FbyVODf-QIXQxNMYrRku-157">
          <mxGeometry relative="1" as="geometry" />
        </mxCell>
        <mxCell id="FbyVODf-QIXQxNMYrRku-171" style="edgeStyle=orthogonalEdgeStyle;rounded=0;orthogonalLoop=1;jettySize=auto;html=1;entryX=1;entryY=0.5;entryDx=0;entryDy=0;endArrow=none;endFill=0;" edge="1" parent="1" source="FbyVODf-QIXQxNMYrRku-173" target="FbyVODf-QIXQxNMYrRku-163">
          <mxGeometry relative="1" as="geometry">
            <mxPoint x="1850" y="415" as="targetPoint" />
          </mxGeometry>
        </mxCell>
        <mxCell id="FbyVODf-QIXQxNMYrRku-172" style="edgeStyle=orthogonalEdgeStyle;rounded=0;orthogonalLoop=1;jettySize=auto;html=1;entryX=1;entryY=0.5;entryDx=0;entryDy=0;endArrow=none;endFill=0;" edge="1" parent="1" source="FbyVODf-QIXQxNMYrRku-173" target="FbyVODf-QIXQxNMYrRku-158">
          <mxGeometry relative="1" as="geometry" />
        </mxCell>
        <mxCell id="FbyVODf-QIXQxNMYrRku-173" value="Database &lt;br&gt;Provider" style="shape=umlActor;verticalLabelPosition=bottom;verticalAlign=top;html=1;outlineConnect=0;" vertex="1" parent="1">
          <mxGeometry x="1945" y="360" width="30" height="60" as="geometry" />
        </mxCell>
        <mxCell id="FbyVODf-QIXQxNMYrRku-174" style="edgeStyle=orthogonalEdgeStyle;rounded=0;orthogonalLoop=1;jettySize=auto;html=1;entryX=1;entryY=0.5;entryDx=0;entryDy=0;endArrow=none;endFill=0;" edge="1" parent="1" source="FbyVODf-QIXQxNMYrRku-175" target="FbyVODf-QIXQxNMYrRku-165">
          <mxGeometry relative="1" as="geometry" />
        </mxCell>
        <mxCell id="FbyVODf-QIXQxNMYrRku-175" value="Sensory Components of&amp;nbsp;&lt;br&gt;the Rover" style="shape=umlActor;verticalLabelPosition=bottom;verticalAlign=top;html=1;outlineConnect=0;" vertex="1" parent="1">
          <mxGeometry x="1960" y="595" width="30" height="60" as="geometry" />
        </mxCell>
        <mxCell id="FbyVODf-QIXQxNMYrRku-176" value="" style="curved=1;endArrow=classic;html=1;rounded=0;entryX=-0.019;entryY=0.333;entryDx=0;entryDy=0;entryPerimeter=0;exitX=0.062;exitY=0.75;exitDx=0;exitDy=0;exitPerimeter=0;endFill=1;dashed=1;" edge="1" parent="1" source="FbyVODf-QIXQxNMYrRku-163" target="FbyVODf-QIXQxNMYrRku-165">
          <mxGeometry width="50" height="50" relative="1" as="geometry">
            <mxPoint x="1610" y="465" as="sourcePoint" />
            <mxPoint x="1560" y="515" as="targetPoint" />
            <Array as="points">
              <mxPoint x="1560" y="465" />
              <mxPoint x="1580" y="545" />
            </Array>
          </mxGeometry>
        </mxCell>
        <mxCell id="FbyVODf-QIXQxNMYrRku-269" value="&amp;lt;&amp;lt;Include&amp;gt;&amp;gt;" style="edgeLabel;html=1;align=center;verticalAlign=middle;resizable=0;points=[];" connectable="0" vertex="1" parent="FbyVODf-QIXQxNMYrRku-176">
          <mxGeometry x="0.1673" y="3" relative="1" as="geometry">
            <mxPoint as="offset" />
          </mxGeometry>
        </mxCell>
        <mxCell id="FbyVODf-QIXQxNMYrRku-236" value="" style="whiteSpace=wrap;html=1;aspect=fixed;" vertex="1" parent="1">
          <mxGeometry x="1300" y="780" width="770" height="770" as="geometry" />
        </mxCell>
        <mxCell id="FbyVODf-QIXQxNMYrRku-237" value="" style="rounded=0;whiteSpace=wrap;html=1;" vertex="1" parent="1">
          <mxGeometry x="1470" y="840" width="440" height="690" as="geometry" />
        </mxCell>
        <mxCell id="FbyVODf-QIXQxNMYrRku-238" style="edgeStyle=orthogonalEdgeStyle;rounded=0;orthogonalLoop=1;jettySize=auto;html=1;entryX=0;entryY=0.5;entryDx=0;entryDy=0;endArrow=none;endFill=0;" edge="1" parent="1" source="FbyVODf-QIXQxNMYrRku-239" target="FbyVODf-QIXQxNMYrRku-268">
          <mxGeometry relative="1" as="geometry" />
        </mxCell>
        <mxCell id="FbyVODf-QIXQxNMYrRku-239" value="System User" style="shape=umlActor;verticalLabelPosition=bottom;verticalAlign=top;html=1;outlineConnect=0;" vertex="1" parent="1">
          <mxGeometry x="1330" y="1100" width="50" height="80" as="geometry" />
        </mxCell>
        <mxCell id="FbyVODf-QIXQxNMYrRku-240" value="Soil&amp;nbsp; Sample Collection" style="text;strokeColor=none;fillColor=none;spacingLeft=4;spacingRight=4;overflow=hidden;rotatable=0;points=[[0,0.5],[1,0.5]];portConstraint=eastwest;fontSize=12;whiteSpace=wrap;html=1;" vertex="1" parent="1">
          <mxGeometry x="1616.88" y="870" width="146.25" height="25" as="geometry" />
        </mxCell>
        <mxCell id="FbyVODf-QIXQxNMYrRku-241" value="Locate Data Sample&lt;br&gt;Collection location" style="ellipse;whiteSpace=wrap;html=1;" vertex="1" parent="1">
          <mxGeometry x="1580" y="1360" width="130" height="50" as="geometry" />
        </mxCell>
        <mxCell id="FbyVODf-QIXQxNMYrRku-242" value="Store Sample" style="ellipse;whiteSpace=wrap;html=1;" vertex="1" parent="1">
          <mxGeometry x="1660" y="1040" width="119.38" height="70" as="geometry" />
        </mxCell>
        <mxCell id="FbyVODf-QIXQxNMYrRku-243" style="edgeStyle=orthogonalEdgeStyle;rounded=0;orthogonalLoop=1;jettySize=auto;html=1;exitX=0.5;exitY=1;exitDx=0;exitDy=0;curved=1;dashed=1;" edge="1" parent="1" source="FbyVODf-QIXQxNMYrRku-242" target="FbyVODf-QIXQxNMYrRku-247">
          <mxGeometry relative="1" as="geometry" />
        </mxCell>
        <mxCell id="FbyVODf-QIXQxNMYrRku-244" value="&amp;lt;&amp;lt;Include&amp;gt;&amp;gt;" style="edgeLabel;html=1;align=center;verticalAlign=middle;resizable=0;points=[];" connectable="0" vertex="1" parent="FbyVODf-QIXQxNMYrRku-243">
          <mxGeometry x="-0.142" y="1" relative="1" as="geometry">
            <mxPoint as="offset" />
          </mxGeometry>
        </mxCell>
        <mxCell id="FbyVODf-QIXQxNMYrRku-245" value="" style="edgeStyle=orthogonalEdgeStyle;rounded=0;orthogonalLoop=1;jettySize=auto;html=1;dashed=1;" edge="1" parent="1" source="FbyVODf-QIXQxNMYrRku-247" target="FbyVODf-QIXQxNMYrRku-260">
          <mxGeometry relative="1" as="geometry" />
        </mxCell>
        <mxCell id="FbyVODf-QIXQxNMYrRku-246" value="&amp;lt;&amp;lt;Include&amp;gt;&amp;gt;" style="edgeLabel;html=1;align=center;verticalAlign=middle;resizable=0;points=[];" connectable="0" vertex="1" parent="FbyVODf-QIXQxNMYrRku-245">
          <mxGeometry x="0.0988" y="1" relative="1" as="geometry">
            <mxPoint as="offset" />
          </mxGeometry>
        </mxCell>
        <mxCell id="FbyVODf-QIXQxNMYrRku-247" value="SoilCollection" style="ellipse;whiteSpace=wrap;html=1;" vertex="1" parent="1">
          <mxGeometry x="1580" y="1140" width="116.25" height="50" as="geometry" />
        </mxCell>
        <mxCell id="FbyVODf-QIXQxNMYrRku-248" value="Analyze the sample" style="ellipse;whiteSpace=wrap;html=1;" vertex="1" parent="1">
          <mxGeometry x="1670" y="915" width="119.38" height="50" as="geometry" />
        </mxCell>
        <mxCell id="FbyVODf-QIXQxNMYrRku-249" value="Check &lt;br&gt;Visibility and Mobility" style="ellipse;whiteSpace=wrap;html=1;" vertex="1" parent="1">
          <mxGeometry x="1573.13" y="1440" width="130" height="50" as="geometry" />
        </mxCell>
        <mxCell id="FbyVODf-QIXQxNMYrRku-250" style="edgeStyle=orthogonalEdgeStyle;rounded=0;orthogonalLoop=1;jettySize=auto;html=1;entryX=0.5;entryY=1;entryDx=0;entryDy=0;curved=1;dashed=1;" edge="1" parent="1" source="FbyVODf-QIXQxNMYrRku-242" target="FbyVODf-QIXQxNMYrRku-248">
          <mxGeometry relative="1" as="geometry" />
        </mxCell>
        <mxCell id="FbyVODf-QIXQxNMYrRku-251" value="&amp;lt;&amp;lt;EXclude&amp;gt;&amp;gt;" style="edgeLabel;html=1;align=center;verticalAlign=middle;resizable=0;points=[];" connectable="0" vertex="1" parent="FbyVODf-QIXQxNMYrRku-250">
          <mxGeometry x="-0.2732" y="-1" relative="1" as="geometry">
            <mxPoint as="offset" />
          </mxGeometry>
        </mxCell>
        <mxCell id="FbyVODf-QIXQxNMYrRku-252" style="edgeStyle=orthogonalEdgeStyle;rounded=0;orthogonalLoop=1;jettySize=auto;html=1;curved=1;entryX=1;entryY=0;entryDx=0;entryDy=0;endArrow=none;endFill=0;" edge="1" parent="1" source="FbyVODf-QIXQxNMYrRku-254" target="FbyVODf-QIXQxNMYrRku-260">
          <mxGeometry relative="1" as="geometry">
            <mxPoint x="1760" y="1250" as="targetPoint" />
          </mxGeometry>
        </mxCell>
        <mxCell id="FbyVODf-QIXQxNMYrRku-253" style="edgeStyle=orthogonalEdgeStyle;rounded=0;orthogonalLoop=1;jettySize=auto;html=1;entryX=1;entryY=0.5;entryDx=0;entryDy=0;endArrow=none;endFill=0;" edge="1" parent="1" source="FbyVODf-QIXQxNMYrRku-254" target="FbyVODf-QIXQxNMYrRku-248">
          <mxGeometry relative="1" as="geometry">
            <Array as="points">
              <mxPoint x="1995" y="1050" />
              <mxPoint x="1925" y="1050" />
              <mxPoint x="1925" y="950" />
              <mxPoint x="1789" y="950" />
            </Array>
          </mxGeometry>
        </mxCell>
        <mxCell id="FbyVODf-QIXQxNMYrRku-254" value="Hardware Module" style="shape=umlActor;verticalLabelPosition=bottom;verticalAlign=top;html=1;outlineConnect=0;" vertex="1" parent="1">
          <mxGeometry x="1980" y="1120" width="30" height="60" as="geometry" />
        </mxCell>
        <mxCell id="FbyVODf-QIXQxNMYrRku-255" style="edgeStyle=orthogonalEdgeStyle;rounded=0;orthogonalLoop=1;jettySize=auto;html=1;entryX=1;entryY=0.5;entryDx=0;entryDy=0;endArrow=none;endFill=0;" edge="1" parent="1" source="FbyVODf-QIXQxNMYrRku-257" target="FbyVODf-QIXQxNMYrRku-249">
          <mxGeometry relative="1" as="geometry" />
        </mxCell>
        <mxCell id="FbyVODf-QIXQxNMYrRku-256" style="edgeStyle=orthogonalEdgeStyle;rounded=0;orthogonalLoop=1;jettySize=auto;html=1;entryX=1;entryY=1;entryDx=0;entryDy=0;endArrow=none;endFill=0;" edge="1" parent="1" source="FbyVODf-QIXQxNMYrRku-257" target="FbyVODf-QIXQxNMYrRku-241">
          <mxGeometry relative="1" as="geometry">
            <Array as="points">
              <mxPoint x="1710" y="1420" />
              <mxPoint x="1710" y="1403" />
            </Array>
          </mxGeometry>
        </mxCell>
        <mxCell id="FbyVODf-QIXQxNMYrRku-257" value="Sensory Components of&amp;nbsp;&lt;br&gt;the Rover" style="shape=umlActor;verticalLabelPosition=bottom;verticalAlign=top;html=1;outlineConnect=0;" vertex="1" parent="1">
          <mxGeometry x="1980" y="1390" width="30" height="60" as="geometry" />
        </mxCell>
        <mxCell id="FbyVODf-QIXQxNMYrRku-258" value="" style="curved=1;endArrow=classic;html=1;rounded=0;entryX=-0.019;entryY=0.333;entryDx=0;entryDy=0;entryPerimeter=0;exitX=0.062;exitY=0.75;exitDx=0;exitDy=0;exitPerimeter=0;endFill=1;dashed=1;" edge="1" parent="1" source="FbyVODf-QIXQxNMYrRku-247" target="FbyVODf-QIXQxNMYrRku-249">
          <mxGeometry width="50" height="50" relative="1" as="geometry">
            <mxPoint x="1550" y="1200" as="sourcePoint" />
            <mxPoint x="1500" y="1250" as="targetPoint" />
            <Array as="points">
              <mxPoint x="1500" y="1200" />
              <mxPoint x="1520" y="1280" />
            </Array>
          </mxGeometry>
        </mxCell>
        <mxCell id="FbyVODf-QIXQxNMYrRku-259" value="&amp;lt;&amp;lt;Extends&amp;gt;&amp;gt;" style="edgeLabel;html=1;align=center;verticalAlign=middle;resizable=0;points=[];" connectable="0" vertex="1" parent="FbyVODf-QIXQxNMYrRku-258">
          <mxGeometry x="0.1063" y="3" relative="1" as="geometry">
            <mxPoint as="offset" />
          </mxGeometry>
        </mxCell>
        <mxCell id="FbyVODf-QIXQxNMYrRku-260" value="Drill and Collect&amp;nbsp;&lt;br&gt;Sample" style="ellipse;whiteSpace=wrap;html=1;" vertex="1" parent="1">
          <mxGeometry x="1580" y="1270" width="116.25" height="50" as="geometry" />
        </mxCell>
        <mxCell id="FbyVODf-QIXQxNMYrRku-261" style="edgeStyle=orthogonalEdgeStyle;rounded=0;orthogonalLoop=1;jettySize=auto;html=1;entryX=0.385;entryY=0.031;entryDx=0;entryDy=0;entryPerimeter=0;dashed=1;curved=1;" edge="1" parent="1" source="FbyVODf-QIXQxNMYrRku-260" target="FbyVODf-QIXQxNMYrRku-241">
          <mxGeometry relative="1" as="geometry" />
        </mxCell>
        <mxCell id="FbyVODf-QIXQxNMYrRku-262" value="&amp;lt;&amp;lt;Include&amp;gt;&amp;gt;" style="edgeLabel;html=1;align=center;verticalAlign=middle;resizable=0;points=[];" connectable="0" vertex="1" parent="FbyVODf-QIXQxNMYrRku-261">
          <mxGeometry x="0.0201" y="1" relative="1" as="geometry">
            <mxPoint as="offset" />
          </mxGeometry>
        </mxCell>
        <mxCell id="FbyVODf-QIXQxNMYrRku-263" style="edgeStyle=orthogonalEdgeStyle;rounded=0;orthogonalLoop=1;jettySize=auto;html=1;dashed=1;curved=1;" edge="1" parent="1" source="FbyVODf-QIXQxNMYrRku-241" target="FbyVODf-QIXQxNMYrRku-265">
          <mxGeometry relative="1" as="geometry" />
        </mxCell>
        <mxCell id="FbyVODf-QIXQxNMYrRku-264" value="&amp;lt;&amp;lt;Extends&amp;gt;&amp;gt;" style="edgeLabel;html=1;align=center;verticalAlign=middle;resizable=0;points=[];" connectable="0" vertex="1" parent="FbyVODf-QIXQxNMYrRku-263">
          <mxGeometry x="-0.4108" y="1" relative="1" as="geometry">
            <mxPoint as="offset" />
          </mxGeometry>
        </mxCell>
        <mxCell id="FbyVODf-QIXQxNMYrRku-265" value="Locate Data Sample&lt;br&gt;Collection location" style="ellipse;whiteSpace=wrap;html=1;" vertex="1" parent="1">
          <mxGeometry x="1713.13" y="1240" width="130" height="50" as="geometry" />
        </mxCell>
        <mxCell id="FbyVODf-QIXQxNMYrRku-266" style="edgeStyle=orthogonalEdgeStyle;rounded=0;orthogonalLoop=1;jettySize=auto;html=1;entryX=0;entryY=0.5;entryDx=0;entryDy=0;dashed=1;curved=1;" edge="1" parent="1" source="FbyVODf-QIXQxNMYrRku-268" target="FbyVODf-QIXQxNMYrRku-242">
          <mxGeometry relative="1" as="geometry" />
        </mxCell>
        <mxCell id="FbyVODf-QIXQxNMYrRku-267" value="&amp;lt;&amp;lt;Include&amp;gt;&amp;gt;" style="edgeLabel;html=1;align=center;verticalAlign=middle;resizable=0;points=[];" connectable="0" vertex="1" parent="FbyVODf-QIXQxNMYrRku-266">
          <mxGeometry x="-0.1256" y="-2" relative="1" as="geometry">
            <mxPoint as="offset" />
          </mxGeometry>
        </mxCell>
        <mxCell id="FbyVODf-QIXQxNMYrRku-268" value="Show Sample Data" style="ellipse;whiteSpace=wrap;html=1;" vertex="1" parent="1">
          <mxGeometry x="1510" y="960" width="119.38" height="70" as="geometry" />
        </mxCell>
      </root>
    </mxGraphModel>
  </diagram>
</mxfile>
